<svg width="29" height="29" viewBox="0 0 29 29" fill="none" xmlns="http://www.w3.org/2000/svg">
<rect x="4.83328" y="4.83337" width="8.45833" height="8.45833" rx="1.5" fill="white"/>
<path opacity="0.3" fill-rule="evenodd" clip-rule="evenodd" d="M15.7083 6.33337C15.7083 5.50495 16.3799 4.83337 17.2083 4.83337H22.6666C23.495 4.83337 24.1666 5.50495 24.1666 6.33337V11.7917C24.1666 12.6201 23.495 13.2917 22.6666 13.2917H17.2083C16.3799 13.2917 15.7083 12.6201 15.7083 11.7917V6.33337ZM4.83328 17.2084C4.83328 16.3799 5.50486 15.7084 6.33328 15.7084H11.7916C12.62 15.7084 13.2916 16.3799 13.2916 17.2084V22.6667C13.2916 23.4951 12.62 24.1667 11.7916 24.1667H6.33328C5.50486 24.1667 4.83328 23.4951 4.83328 22.6667V17.2084ZM17.2083 15.7084C16.3799 15.7084 15.7083 16.3799 15.7083 17.2084V22.6667C15.7083 23.4951 16.3799 24.1667 17.2083 24.1667H22.6666C23.495 24.1667 24.1666 23.4951 24.1666 22.6667V17.2084C24.1666 16.3799 23.495 15.7084 22.6666 15.7084H17.2083Z" fill="white"/>
</svg>
