<svg width="25" height="23" viewBox="0 0 25 23" fill="none" xmlns="http://www.w3.org/2000/svg">
<path fill-rule="evenodd" clip-rule="evenodd" d="M23.1454 17.3574C23.4678 17.6476 23.9816 17.4176 23.9798 16.9838L23.9624 12.5862V5.48091C23.9624 4.17287 22.7842 3.11249 21.3309 3.11249H9.05016C7.59678 3.11249 6.41858 4.17287 6.41858 5.48091V8.73749H13.6667C15.3235 8.73749 16.6667 10.0806 16.6667 11.7375V14.9546H20.4755L23.1454 17.3574Z" fill="white"/>
<path opacity="0.3" fill-rule="evenodd" clip-rule="evenodd" d="M2.06777 17.175V12.4875C2.06777 11.452 3.00051 10.6125 4.15111 10.6125H12.4844C13.635 10.6125 14.5678 11.452 14.5678 12.4875V17.175C14.5678 18.2105 13.635 19.05 12.4844 19.05H4.27166L2.92134 20.2132C2.59725 20.4923 2.09502 20.2621 2.09502 19.8343V17.479C2.07709 17.38 2.06777 17.2785 2.06777 17.175ZM6.25 13.8937C6.25 13.6349 6.45987 13.425 6.71875 13.425H12.0313C12.2901 13.425 12.5 13.6349 12.5 13.8937C12.5 14.1526 12.2901 14.3625 12.0313 14.3625H6.71875C6.45987 14.3625 6.25 14.1526 6.25 13.8937ZM9.84375 15.3C9.58487 15.3 9.375 15.5099 9.375 15.7687C9.375 16.0276 9.58487 16.2375 9.84375 16.2375H12.0313C12.2901 16.2375 12.5 16.0276 12.5 15.7687C12.5 15.5099 12.2901 15.3 12.0313 15.3H9.84375Z" fill="white"/>
</svg>
