<svg width="16" height="16" viewBox="0 0 16 16" fill="none" xmlns="http://www.w3.org/2000/svg">
<path d="M14.1381 2.98637C14.7155 3.56378 14.725 4.49698 14.1594 5.08597L8.74252 10.7271C8.46723 11.0137 8.08941 11.1795 7.69204 11.1878L5.41672 11.2355L5.46478 8.94497C5.47292 8.55664 5.63139 8.1866 5.90683 7.91274L11.4439 2.40735C12.0301 1.82442 12.9775 1.82578 13.5621 2.41038L14.1381 2.98637Z" fill="#3699FF"/>
<path opacity="0.3" d="M8.60002 1.3333C8.96821 1.3333 9.26668 1.63177 9.26668 1.99996C9.26668 2.36815 8.96821 2.66663 8.60002 2.66663H4.00002C3.26364 2.66663 2.66668 3.26358 2.66668 3.99996V12C2.66668 12.7363 3.26364 13.3333 4.00002 13.3333H12C12.7364 13.3333 13.3334 12.7363 13.3334 12V8.66663C13.3334 8.29844 13.6318 7.99996 14 7.99996C14.3682 7.99996 14.6667 8.29844 14.6667 8.66663V12C14.6667 13.4727 13.4728 14.6666 12 14.6666H4.00002C2.52726 14.6666 1.33335 13.4727 1.33335 12V3.99996C1.33335 2.5272 2.52726 1.3333 4.00002 1.3333H8.60002Z" fill="#3699FF"/>
</svg>
